<?xml version="1.0" encoding="utf-8"?>
<!-- Generator: Adobe Illustrator 19.2.1, SVG Export Plug-In . SVG Version: 6.00 Build 0)  -->
<svg version="1.1" id="layer" xmlns="http://www.w3.org/2000/svg" xmlns:xlink="http://www.w3.org/1999/xlink" x="0px" y="0px"
	 viewBox="0 210 652 210" style="enable-background:new 0 0 652 652;" xml:space="preserve">
<style type="text/css">
	.st0{fill:#080909;}
	.st1{fill:#EE2D47;}
</style>
<g>
	<g>
		<g>
			<path class="st0" d="M58.1,276.1L58.1,276.1l6-41.8H50.4l-7.1,49.5c-0.3,2.3,1.4,6.3,5.8,6.3H93l1.9-12.4H59.8
				C58.7,277.8,58.1,276.9,58.1,276.1z"/>
		</g>
		<g>
			<path class="st0" d="M305.3,276.3L305.3,276.3l4.7-34.9h-12.9l-6.3,43.5c-0.3,2.9,2.2,5.2,4.9,5.2h38.1l1.9-12.1h-29.1
				C305.6,278.1,305.1,276.9,305.3,276.3z"/>
		</g>
		<g>
			<path class="st0" d="M354.7,276.3L354.7,276.3l4.9-34.9h-12.9l-6.3,43.5c-0.3,2.9,1.9,5.2,4.9,5.2h38.1l1.6-12.1h-28.8
				C355.3,278.1,354.7,276.9,354.7,276.3z"/>
		</g>
		<g>
			<polygon class="st0" points="278.2,241.5 278.2,241.5 271,290.2 284.5,290.2 291.6,241.5 			"/>
		</g>
		<g>
			<path class="st0" d="M252.1,234.3L252.1,234.3c-2.2,0-3,1.7-3,1.7s-10.4,27.7-10.4,27.9l-0.3,0.3c-0.3,0-0.3-0.3-0.3-0.3
				c0-0.3-2.7-27.4-2.7-27.4c0-0.6-0.5-2.3-2.7-2.3c-1.9,0-20.3,0-20.3,0l-8.2,55.9h13.7l5.2-36.6l4.7,33.7c0.3,2.6,2.2,2.9,3,2.9
				c1.9,0,4.7,0,6.9,0c1.4,0,2.5-0.6,3-2.3l15.6-34.3l-5.2,36.6h14.3l8.5-55.9C273.8,234.3,253.2,234.3,252.1,234.3z"/>
		</g>
		<g>
			<path class="st0" d="M114.4,272.6L114.4,272.6c0-0.6,0.5-0.6,0.5-0.6h29.9c2.7,0,4.9-1.7,5.5-5.8l3-20.4c0.3-1.4-0.3-4.3-4.1-4.3
				h-37.9c-2.2,0-6,1.7-6.6,6.6l-5.2,36.6c-0.8,3.7,1.6,5.5,4.4,5.5h42.8l1.9-12.1h-34.3c-0.5,0-0.8-0.6-0.8-0.9L114.4,272.6z
				 M116.3,259.1L116.3,259.1l0.8-4.9c0-0.3,0.3-0.6,0.5-0.6h21.1c0.5,0,0.8,0.6,0.8,0.9l-0.8,4.6c0,0.3-0.3,0.6-0.5,0.6h-21.1
				C116.6,259.6,116.3,259.3,116.3,259.1z"/>
		</g>
		<g>
			<path class="st0" d="M170.6,254.2L170.6,254.2c0-0.3,0.3-0.6,0.8-0.6h32.4l1.9-12.1h-40.1c-4.4,0-6.6,3.2-6.9,5.5l-3,20.5
				c-0.3,2.6,1.6,4.6,3.8,4.6h27.7c0.5,0,0.8,0.3,0.8,0.9l-0.8,4.3c0,0.6-0.3,0.9-0.5,0.9h-32.4l-1.9,12.1h40.9c3,0,5.2-1.7,5.8-4.3
				l3-21.6c0.3-2-0.8-4.6-4.1-4.6h-27.4c-0.3,0-0.8-0.3-0.5-0.9L170.6,254.2z"/>
		</g>
		<g>
			<path class="st0" d="M407.1,254.2L407.1,254.2c0.3-0.3,0.5-0.6,0.8-0.6h32.4l1.9-12.1h-40.1c-4.4,0-6.3,3.2-6.6,5.5l-3,20.5
				c-0.5,2.6,1.6,4.6,3.6,4.6h28c0.3,0,0.5,0.3,0.5,0.9l-0.5,4.3c-0.3,0.6-0.5,0.9-0.8,0.9h-32.4l-1.9,12.1h41.1
				c2.7,0,5.2-1.7,5.5-4.3l3.3-21.6c0.3-2-1.1-4.6-4.1-4.6h-27.7c-0.3,0-0.5-0.3-0.5-0.9L407.1,254.2z"/>
		</g>
		<g>
			<path class="st1" d="M56.5,411.2L56.5,411.2c8.8,0,16.2-2.9,22.2-8.1c6-5.5,9.9-12.4,11.2-21c1.1-6.9,0.3-12.1-2.5-15.8
				c-2.5-3.7-7.1-6.1-14-6.9c12.3-1.2,19.2-8.1,21.1-20.7c1.4-8.4-0.3-15.3-5.2-20.7c-4.7-5.2-12.6-7.8-23.9-7.8H35.4L20.3,411.2
				H56.5z M52.4,369.7L52.4,369.7h1.9c3.6,0,6,0.9,7.7,2.6c1.6,1.7,2.2,4.3,1.6,7.2c-0.3,3.2-1.6,5.8-3.8,7.5
				c-2.2,2-4.9,2.9-8.2,2.9c-0.3,0-0.5,0-0.8,0c-0.5,0-0.8-0.3-1.4-0.3L52.4,369.7z M58.1,331.1L58.1,331.1c0.5,0,1.1,0,1.6,0
				c0.5,0,0.8,0,1.1,0c6,0,8.8,2.9,8,8.6c-0.5,2.9-1.6,4.9-3.8,6.3c-1.9,1.7-4.7,2.3-7.7,2.3h-1.6L58.1,331.1z M165.7,323.9
				L165.7,323.9c-5.2-9.2-13.4-13.8-24.4-13.8c-9.1,0-17.6,3.5-25.2,10.1c-10.2,9.2-16.5,22.5-19.2,39.7
				c-2.7,17.9-0.5,31.4,6.6,40.3c5.8,7.2,13.4,10.9,22.8,10.9c10.7,0,20-4.9,28.3-14.1c8-9.2,13.2-21.3,15.4-36.3
				C172.3,345.2,170.6,333.1,165.7,323.9z M137.4,380L137.4,380c-2.5,4.6-5.2,6.6-8.2,6.6c-3,0-4.9-2-6-6.6
				c-0.8-4.6-0.8-11.2,0.5-19.6c1.1-8.4,3-14.7,5.5-19.3c2.5-4.6,5.5-6.9,8.5-6.9c6,0,7.7,8.9,5.2,26.8
				C141.5,369.1,139.9,375.4,137.4,380z M192.6,411.2L192.6,411.2c13.4,0,24.1-4,32.1-11.8c9.3-9.2,15.1-21.9,17.6-38.9
				c2.7-17,0-30.2-8-39.5c-6-7.5-15.6-10.9-28.3-10.9h-22.5l-15.4,101.1H192.6z M205.7,335.4L205.7,335.4h0.8c3.8,0,6.9,2.3,8.5,7.2
				c1.6,4.6,1.9,10.9,0.5,19c-2.5,16.4-8.2,24.8-17.8,25.1L205.7,335.4z M282.6,368.2L282.6,368.2l31.3-58.2h-26.9l-7.1,15
				c-0.8,1.7-1.6,4-2.7,6.6c-1.1,2.6-2.5,5.8-4.1,9.5c0-2.3-0.3-4.9-0.8-7.8c-0.3-2.6-0.6-5.5-1.1-8.4l-2.5-15h-26.9l15.1,58.2
				l-6.6,42.9h26.1L282.6,368.2z M333.6,378L333.6,378h4.1c9.9,0,17.6-2,23.3-6.3c8.5-5.8,13.7-15,15.6-27.4
				c1.6-11.2-0.5-19.9-6.9-26.2c-5.2-5.5-14.3-8.1-26.6-8.1h-25.2l-15.4,101.1h26.1L333.6,378z M340.4,333.4L340.4,333.4h1.6
				c3,0,5.2,1.2,6.6,3.5c1.4,2.3,1.9,4.9,1.4,8.6c-0.5,3.5-1.9,6.1-3.8,8.1c-2.2,2-4.9,3.2-8.2,3.2h-1.1L340.4,333.4z M417.8,374.9
				L417.8,374.9c-0.8,4.6-1.6,7.5-3,9.5c-1.1,1.7-3,2.3-5.5,2.3c-2.5,0-3.8-0.9-4.7-2.6c-0.8-1.7-0.8-4.9-0.3-9.2l9.9-64.8h-26.1
				l-9.9,66.2c-1.9,13,0.5,22.2,7.1,27.9c5.5,4.6,12.6,6.9,21.4,6.9c8,0,14.8-2.3,20.9-6.3c4.6-3.2,8.2-6.6,10.4-10.4
				c2.2-3.7,3.8-8.4,4.9-14.1l10.4-70.3h-26.1L417.8,374.9z M547.1,310L547.1,310h-31.3l-12.1,36.6c-1.6,4.9-3.3,10.7-4.6,17.3
				c0.3-4,0.3-7.5,0.5-10.7c0.3-3.5,0.3-6.3,0.3-9.2l-0.3-34h-32.4l-26.6,101.1h27.7l9.3-45.8l3.3-18.7c0,2.9-0.3,4.9-0.3,5.8
				c-0.3,6.3-0.3,10.9-0.3,13.5v45.2H502l15.4-45.2c0.8-2.9,1.9-6.1,2.7-9.2c0.8-3.2,1.6-6.6,2.5-10.1l-1.9,18.4l-5.7,46.1h26.3
				L547.1,310z M576.9,378L576.9,378h4.1c9.6,0,17.3-2,23.3-6.3c8.5-5.8,13.7-15,15.4-27.4c1.6-11.2-0.5-19.9-6.6-26.2
				c-5.2-5.5-14.3-8.1-26.9-8.1h-24.9L546,411.2h26L576.9,378z M583.5,333.4L583.5,333.4h1.9c2.7,0,4.9,1.2,6.6,3.5
				c1.4,2.3,1.9,4.9,1.4,8.6c-0.5,3.5-1.9,6.1-4.1,8.1c-2.2,2-4.9,3.2-8,3.2h-1.1L583.5,333.4z"/>
		</g>
	</g>
</g>
</svg>
