<?xml version="1.0" encoding="utf-8"?>
<!-- Generator: Adobe Illustrator 19.2.1, SVG Export Plug-In . SVG Version: 6.00 Build 0)  -->
<svg version="1.1" id="layer" xmlns="http://www.w3.org/2000/svg" xmlns:xlink="http://www.w3.org/1999/xlink" x="0px" y="0px"
	 viewBox="0 230 630 190" style="enable-background:new 0 0 652 652;" xml:space="preserve">
<style type="text/css">
	.st0{fill:#080909;}
	.st1{fill:#F8A924;}
</style>
<g>
	<g>
		<g>
			<path class="st0" d="M54.9,277.4L54.9,277.4l5.5-40.6H47.9L41.3,285c-0.3,2.2,1.3,6.2,5.3,6.2h40.1l1.8-12.1H56.4
				C55.4,279.1,54.9,278.3,54.9,277.4z"/>
		</g>
		<g>
			<path class="st0" d="M281,277.7L281,277.7l4.3-33.9h-11.8l-5.8,42.3c-0.3,2.8,2,5,4.5,5h34.9l1.8-11.8h-26.6
				C281.2,279.4,280.7,278.3,281,277.7z"/>
		</g>
		<g>
			<path class="st0" d="M326.2,277.7L326.2,277.7l4.5-33.9h-11.8l-5.8,42.3c-0.3,2.8,1.8,5,4.5,5h34.9l1.5-11.8h-26.4
				C326.7,279.4,326.2,278.3,326.2,277.7z"/>
		</g>
		<g>
			<polygon class="st0" points="256.1,243.8 256.1,243.8 249.6,291.2 261.9,291.2 268.4,243.8 			"/>
		</g>
		<g>
			<path class="st0" d="M232.3,236.8L232.3,236.8c-2,0-2.8,1.7-2.8,1.7s-9.5,26.9-9.5,27.2l-0.3,0.3c-0.3,0-0.3-0.3-0.3-0.3
				c0-0.3-2.5-26.6-2.5-26.6c0-0.6-0.5-2.2-2.5-2.2c-1.8,0-18.6,0-18.6,0l-7.5,54.4h12.5l4.8-35.6l4.3,32.8c0.3,2.5,2,2.8,2.8,2.8
				c1.8,0,4.3,0,6.3,0c1.3,0,2.3-0.6,2.8-2.2l14.3-33.4l-4.8,35.6h13.1l7.8-54.4C252.1,236.8,233.3,236.8,232.3,236.8z"/>
		</g>
		<g>
			<path class="st0" d="M106.3,274.1L106.3,274.1c0-0.6,0.5-0.6,0.5-0.6h27.4c2.5,0,4.5-1.7,5-5.6L142,248c0.3-1.4-0.3-4.2-3.8-4.2
				h-34.6c-2,0-5.5,1.7-6,6.4l-4.8,35.6c-0.8,3.6,1.5,5.3,4,5.3h39.1l1.8-11.8h-31.4c-0.5,0-0.8-0.6-0.8-0.8L106.3,274.1z
				 M108.1,260.9L108.1,260.9l0.8-4.8c0-0.3,0.3-0.6,0.5-0.6h19.3c0.5,0,0.8,0.6,0.8,0.8l-0.8,4.5c0,0.3-0.3,0.6-0.5,0.6h-19.3
				C108.3,261.4,108.1,261.2,108.1,260.9z"/>
		</g>
		<g>
			<path class="st0" d="M157.8,256.1L157.8,256.1c0-0.3,0.3-0.6,0.8-0.6h29.6l1.8-11.8h-36.6c-4,0-6,3.1-6.3,5.3l-2.8,19.9
				c-0.3,2.5,1.5,4.5,3.5,4.5h25.3c0.5,0,0.8,0.3,0.8,0.8l-0.8,4.2c0,0.6-0.3,0.8-0.5,0.8H143l-1.8,11.8h37.4c2.8,0,4.8-1.7,5.3-4.2
				l2.8-21c0.3-2-0.8-4.5-3.8-4.5h-25.1c-0.3,0-0.8-0.3-0.5-0.8L157.8,256.1z"/>
		</g>
		<g>
			<path class="st0" d="M374.1,256.1L374.1,256.1c0.3-0.3,0.5-0.6,0.8-0.6h29.6l1.8-11.8h-36.7c-4,0-5.8,3.1-6,5.3l-2.7,19.9
				c-0.5,2.5,1.5,4.5,3.2,4.5h25.6c0.2,0,0.5,0.3,0.5,0.8l-0.5,4.2c-0.3,0.6-0.5,0.8-0.8,0.8h-29.6l-1.8,11.8h37.7
				c2.5,0,4.7-1.7,5-4.2l3-21c0.2-2-1-4.5-3.8-4.5h-25.4c-0.2,0-0.5-0.3-0.5-0.8L374.1,256.1z"/>
		</g>
		<g>
			<path class="st1" d="M53.4,408.9L53.4,408.9c8,0,14.8-2.8,20.3-7.8c5.5-5.3,9-12.1,10.3-20.5c1-6.7,0.3-11.8-2.3-15.4
				c-2.3-3.6-6.5-5.9-12.8-6.7c11.3-1.1,17.6-7.8,19.3-20.2c1.3-8.1-0.3-14.9-4.8-20.2c-4.3-5-11.5-7.6-21.8-7.6H34.1l-13.8,98.4
				H53.4z M49.6,368.5L49.6,368.5h1.8c3.3,0,5.5,0.8,7,2.5c1.5,1.7,2,4.2,1.5,7c-0.3,3.1-1.5,5.6-3.5,7.3c-2,2-4.5,2.8-7.5,2.8
				c-0.3,0-0.5,0-0.8,0c-0.5,0-0.8-0.3-1.3-0.3L49.6,368.5z M54.9,331L54.9,331c0.5,0,1,0,1.5,0c0.5,0,0.8,0,1,0
				c5.5,0,8,2.8,7.3,8.4c-0.5,2.8-1.5,4.8-3.5,6.2c-1.8,1.7-4.3,2.2-7,2.2h-1.5L54.9,331z M153,324L153,324
				c-4.8-9-12.3-13.5-22.3-13.5c-8.3,0-16.1,3.4-22.8,9.8c-9.5,9-15.3,21.9-17.8,38.7c-2.5,17.4-0.5,30.6,6,39.3
				c5.3,7,12.3,10.7,20.8,10.7c9.8,0,18.3-4.8,25.8-13.7c7.3-9,12-20.7,14.1-35.3C159,344.7,157.8,332.9,153,324z M127.2,378.6
				L127.2,378.6c-2.3,4.5-4.8,6.4-7.5,6.4c-2.8,0-4.5-2.2-5.5-6.4c-0.8-4.5-0.8-10.9,0.5-19.1c1-8.1,2.8-14.3,5-18.8
				c2.3-4.5,5-6.7,7.8-6.7c5.5,0,7.3,8.7,4.8,26.1C130.9,368,129.4,374.1,127.2,378.6z M177.4,408.9L177.4,408.9
				c12.3,0,22.1-3.9,29.4-11.5c8.5-9,13.8-21.3,16.3-37.8c2.3-16.5-0.3-29.4-7.5-38.4c-5.5-7.3-14.1-10.7-25.8-10.7h-20.6L155,408.9
				H177.4z M189.4,335.2L189.4,335.2h0.8c3.5,0,6.3,2.2,7.8,7c1.5,4.5,1.8,10.7,0.5,18.5c-2.3,16-7.5,24.1-16.3,24.4L189.4,335.2z
				 M259.4,367.1L259.4,367.1l28.6-56.6h-24.6l-6.5,14.6c-0.8,1.7-1.5,3.9-2.5,6.4c-1,2.5-2.3,5.6-3.5,9.3c-0.3-2.2-0.5-4.8-0.8-7.6
				c-0.3-2.5-0.8-5.3-1.3-8.1l-2-14.6H222l13.8,56.6l-6,41.8h23.8L259.4,367.1z M326.9,310.5L326.9,310.5h-28.9l-35.1,98.4h24.6
				l3.5-12.6h16.1v12.6h24.6L326.9,310.5z M297.3,375.5L297.3,375.5l4.5-15.4l3.3-11.8c0.3-0.3,0.3-0.8,0.5-2
				c0.3-0.8,0.8-2.8,1.5-5.3c0.3-1.4,0.5-2.5,0.8-3.6c0.5-1.1,0.8-2.2,0.8-3.1l-0.5,9.3c0,2-0.3,3.6-0.3,4.8c0,1.4,0,2.2,0,3.1
				c-0.3,6.4-0.5,10.1-0.5,10.9c0,1.1,0,1.7,0,1.7v11.5H297.3z M372.6,334.1L372.6,334.1h13.8l3.3-23.5h-50.5l-3.5,23.5H349
				l-10.8,74.9H362L372.6,334.1z M427.6,334.1L427.6,334.1h13.8l3.3-23.5h-50.4l-3.5,23.5h13.3l-10.8,74.9H417L427.6,334.1z
				 M488.5,310.5L488.5,310.5h-29.1l-35.1,98.4h24.6l3.8-12.6h16.1v12.6H493L488.5,310.5z M458.7,375.5L458.7,375.5l4.5-15.4
				l3.5-11.8c0-0.3,0.3-0.8,0.5-2c0.3-0.8,0.5-2.8,1.3-5.3c0.2-1.4,0.7-2.5,1-3.6c0.2-1.1,0.5-2.2,0.7-3.1l-0.7,9.3c0,2,0,3.6,0,4.8
				c-0.3,1.4-0.3,2.2-0.3,3.1c-0.2,6.4-0.2,10.1-0.2,10.9c-0.3,1.1-0.3,1.7-0.3,1.7v11.5H458.7z M530.9,385.1L530.9,385.1
				c-2.5,0-4.5-0.6-6.3-1.7c-1.5-1.1-3-2.5-4-4.8c-0.7-2.2-1.5-4.8-1.7-7.9c-0.3-3.1,0-6.7,0.5-10.7c1.2-8.1,3.5-14.6,6.8-19.3
				c3.5-4.5,7.5-6.7,12.5-6.7c3.5,0,7.1,2,10.1,5.9l3.7-27.2c-3.7-1.4-7.5-2.2-11.3-2.2c-12,0-22.1,4.5-30.3,13.5
				c-8.3,9-13.6,21-15.8,36.2c-2.3,16-0.3,28.3,6,37c5.8,7.8,13.5,11.8,23.3,11.8c4.2,0,9-1.1,14.5-3.4l5.3-26.6
				C539.5,383.1,534.9,385.1,530.9,385.1z M594.4,357.9L594.4,357.9l25.9-47.4h-25.1l-20.1,42.1l6.5-42.1H558l-14,98.4h23.8
				l5.8-45.4l9.3,45.4h25.6L594.4,357.9z"/>
		</g>
	</g>
</g>
</svg>
