<?xml version="1.0" encoding="utf-8"?>
<!-- Generator: Adobe Illustrator 19.2.1, SVG Export Plug-In . SVG Version: 6.00 Build 0)  -->
<svg version="1.1" id="layer" xmlns="http://www.w3.org/2000/svg" xmlns:xlink="http://www.w3.org/1999/xlink" x="0px" y="0px"
	 viewBox="0 230 630 190" style="enable-background:new 0 0 652 652;" xml:space="preserve">
<style type="text/css">
	.st0{fill:#080909;}
	.st1{fill:#AEDD5E;}
</style>
<g>
	<g>
		<g>
			<path class="st0" d="M50.6,283.4L50.6,283.4l4.9-35.4H44.5l-5.7,42c-0.2,2,1.1,5.4,4.6,5.4h35.4l1.5-10.5H52
				C51.1,284.9,50.6,284.1,50.6,283.4z"/>
		</g>
		<g>
			<path class="st0" d="M249.8,283.6L249.8,283.6l3.8-29.6h-10.4l-5.1,36.9c-0.2,2.4,1.8,4.4,4,4.4h30.7l1.5-10.3h-23.4
				C250,285.1,249.8,284.1,249.8,283.6z"/>
		</g>
		<g>
			<path class="st0" d="M289.5,283.6L289.5,283.6l4-29.6h-10.4l-5.1,36.9c-0.2,2.4,1.5,4.4,4,4.4h30.7l1.3-10.3h-23.2
				C290,285.1,289.5,284.1,289.5,283.6z"/>
		</g>
		<g>
			<polygon class="st0" points="227.9,254.1 227.9,254.1 222.1,295.4 233,295.4 238.7,254.1 			"/>
		</g>
		<g>
			<path class="st0" d="M206.9,248L206.9,248c-1.8,0-2.4,1.5-2.4,1.5s-8.4,23.5-8.4,23.7l-0.2,0.2c-0.2,0-0.2-0.2-0.2-0.2
				c0-0.2-2.2-23.2-2.2-23.2c0-0.5-0.4-2-2.2-2c-1.5,0-16.4,0-16.4,0l-6.6,47.4h11l4.2-31l3.8,28.6c0.2,2.2,1.8,2.4,2.4,2.4
				c1.5,0,3.8,0,5.5,0c1.1,0,2-0.5,2.7-2l12.4-29.1l-4.2,31h11.5l6.8-47.4C224.3,248,207.8,248,206.9,248z"/>
		</g>
		<g>
			<path class="st0" d="M96,280.5L96,280.5c0-0.5,0.4-0.5,0.4-0.5h24.1c2.2,0,4-1.5,4.4-4.9l2.4-17.3c0.2-1.2-0.2-3.7-3.3-3.7H93.5
				c-1.8,0-4.9,1.5-5.3,5.6l-4.2,31c-0.7,3.2,1.3,4.6,3.5,4.6H122l1.5-10.3H96c-0.2,0-0.7-0.5-0.7-0.7L96,280.5z M97.5,269L97.5,269
				l0.7-4.2c0-0.2,0.2-0.5,0.4-0.5h17c0.4,0,0.7,0.5,0.7,0.7l-0.7,3.9c0,0.2-0.2,0.5-0.4,0.5h-17C97.7,269.5,97.5,269.2,97.5,269z"
				/>
		</g>
		<g>
			<path class="st0" d="M141.3,264.8L141.3,264.8c0-0.2,0.2-0.5,0.7-0.5H168l1.5-10.3h-32.3c-3.5,0-5.3,2.7-5.5,4.6l-2.4,17.4
				c-0.2,2.2,1.3,3.9,3.1,3.9h22.3c0.4,0,0.7,0.2,0.7,0.7l-0.7,3.7c0,0.5-0.2,0.7-0.4,0.7h-26.1l-1.5,10.3h32.9
				c2.4,0,4.2-1.5,4.6-3.7l2.4-18.3c0.2-1.7-0.7-3.9-3.3-3.9h-22.1c-0.2,0-0.7-0.2-0.4-0.7L141.3,264.8z"/>
		</g>
		<g>
			<path class="st0" d="M332,264.8L332,264.8c0-0.2,0.2-0.5,0.4-0.5h26.1l1.5-10.3h-32.3c-3.5,0-5.1,2.7-5.3,4.6l-2.4,17.4
				c-0.4,2.2,1.4,3.9,2.9,3.9h22.5c0.2,0,0.4,0.2,0.4,0.7l-0.4,3.7c0,0.5-0.4,0.7-0.6,0.7h-26.1l-1.5,10.3h33.1
				c2.2,0,4.2-1.5,4.4-3.7l2.7-18.3c0.2-1.7-0.9-3.9-3.3-3.9H332c-0.4,0-0.7-0.2-0.7-0.7L332,264.8z"/>
		</g>
		<g>
			<path class="st1" d="M49.3,398L49.3,398c7.1,0,13-2.4,17.9-6.8c4.9-4.6,8-10.5,9.1-17.8c0.9-5.9,0.2-10.3-2-13.4
				c-2-3.2-5.7-5.1-11.3-5.9c9.9-1,15.5-6.8,17-17.6c1.1-7.1-0.2-13-4.2-17.6c-3.8-4.4-10.2-6.6-19.2-6.6H32.3L20.1,398H49.3z
				 M46,362.8L46,362.8h1.5c2.9,0,4.9,0.7,6.2,2.2c1.3,1.5,1.8,3.7,1.3,6.1c-0.2,2.7-1.3,4.9-3.1,6.4c-1.8,1.7-4,2.4-6.6,2.4
				c-0.2,0-0.4,0-0.7,0c-0.4,0-0.7-0.2-1.1-0.2L46,362.8z M50.6,330.1L50.6,330.1c0.4,0,0.9,0,1.3,0s0.7,0,0.9,0
				c4.9,0,7.1,2.4,6.4,7.3c-0.4,2.4-1.3,4.2-3.1,5.4c-1.5,1.5-3.8,2-6.2,2h-1.3L50.6,330.1z M135.1,324L135.1,324
				c-4.2-7.8-10.6-11.7-19.7-11.7c-7.3,0-13.9,2.9-20.1,8.6c-8.2,7.8-13.5,19.1-15.5,33.7c-2.2,15.2-0.4,26.6,5.3,34.2
				c4.6,6.1,10.6,9.3,18.3,9.3c8.6,0,16.1-4.2,22.5-12c6.6-7.8,10.8-18.1,12.6-30.8C140.4,342,139.3,331.8,135.1,324z M112.3,371.6
				L112.3,371.6c-1.8,3.9-4,5.6-6.4,5.6c-2.4,0-4-1.7-4.9-5.6c-0.9-3.9-0.7-9.5,0.2-16.6c1.1-7.1,2.7-12.5,4.6-16.4
				c2-3.9,4.2-5.9,6.8-5.9c4.9,0,6.2,7.6,4,22.7C115.8,362.3,114.3,367.7,112.3,371.6z M156.9,398L156.9,398
				c10.8,0,19.2-3.4,25.6-10c7.5-7.8,12.4-18.6,14.4-33c2-14.4,0-25.7-6.4-33.5c-4.9-6.4-12.6-9.3-23-9.3h-17.9L137.3,398H156.9z
				 M167.3,333.7L167.3,333.7h0.7c3.3,0,5.5,2,6.8,6.1c1.3,3.9,1.5,9.3,0.7,16.1c-2,13.9-6.9,21-14.4,21.3L167.3,333.7z
				 M229.4,361.6L229.4,361.6l25-49.4h-21.7l-5.5,12.7c-0.7,1.5-1.5,3.4-2.4,5.6c-0.9,2.2-1.8,4.9-3.1,8.1c-0.2-2-0.4-4.2-0.7-6.6
				c-0.2-2.2-0.4-4.6-0.9-7.1l-2-12.7h-21.9l12.2,49.4l-5.1,36.4h20.8L229.4,361.6z M275,398L275,398c6.9,0,12.8-2.4,17.7-6.8
				c5.1-4.6,8-10.5,9.1-17.8c0.9-5.9,0.2-10.3-1.8-13.4c-2.2-3.2-6-5.1-11.3-5.9c9.7-1,15.5-6.8,17-17.6c0.9-7.1-0.4-13-4.2-17.6
				c-3.8-4.4-10.2-6.6-19.2-6.6h-24.5L245.6,398H275z M271.4,362.8L271.4,362.8h1.8c2.7,0,4.6,0.7,6,2.2c1.3,1.5,2,3.7,1.5,6.1
				c-0.4,2.7-1.5,4.9-3.3,6.4c-1.8,1.7-4,2.4-6.6,2.4c0,0-0.4,0-0.7,0c-0.2,0-0.7-0.2-1.1-0.2L271.4,362.8z M276.3,330.1
				L276.3,330.1c0.4,0,0.9,0,1.1,0c0.4,0,0.7,0,0.9,0c5.1,0,7.1,2.4,6.4,7.3c-0.4,2.4-1.3,4.2-2.9,5.4c-1.8,1.5-3.8,2-6.4,2h-1.3
				L276.3,330.1z M353.8,312.2L353.8,312.2h-25.4l-31,85.8h21.6l3.1-11h14.1v11h21.7L353.8,312.2z M327.8,368.9L327.8,368.9l4-13.4
				l2.9-10.3c0.2-0.2,0.2-0.7,0.4-1.7c0.2-0.7,0.6-2.4,1.3-4.6c0.2-1.2,0.4-2.2,0.6-3.2c0.4-1,0.7-2,0.7-2.7l-0.4,8.1
				c0,1.7-0.2,3.2-0.2,4.2c0,1.2,0,2,0,2.7c-0.2,5.6-0.4,8.8-0.4,9.5c0,1,0,1.5,0,1.5v10H327.8z M399.6,377.2L399.6,377.2h-15.7
				l9.3-65h-21L360,398h36.7L399.6,377.2z M455.3,312.2L455.3,312.2h-25.6l-31,85.8h21.7l3.3-11h14.1v11h21.7L455.3,312.2z
				 M429,368.9L429,368.9l4.2-13.4l2.9-10.3c0-0.2,0.2-0.7,0.4-1.7c0.2-0.7,0.7-2.4,1.1-4.6c0.4-1.2,0.6-2.2,0.9-3.2
				c0.2-1,0.4-2,0.6-2.7l-0.4,8.1c-0.2,1.7-0.2,3.2-0.2,4.2c-0.2,1.2-0.2,2-0.2,2.7c-0.2,5.6-0.2,8.8-0.2,9.5c0,1,0,1.5,0,1.5
				l-0.2,10H429z M481.6,398L481.6,398l3.1-22c0.4-3.4,0.9-7.3,1.1-11.7c0.2-4.4,0.4-9.8,0.4-15.9c0.2,2.7,0.7,5.6,1.3,8.6
				c0.4,2.9,1.1,6.1,1.8,9.5L496,398h20.1l12.4-85.8h-20.3l-2.7,19.3c-0.4,3.4-0.9,8.1-1.3,13.2c-0.2,5.4-0.7,11.7-0.9,19.1
				l-1.1-7.6c-0.4-2.9-0.9-5.6-1.3-7.8c-0.4-2.2-0.6-4.4-1.1-6.1l-6.2-30.1h-19.9L461.3,398H481.6z M557,377.2L557,377.2
				c-2.2,0-4-0.5-5.5-1.5c-1.3-1-2.7-2.4-3.5-4.2c-0.6-2-1.3-4.2-1.5-6.8c-0.2-2.7,0-5.9,0.4-9.3c1.1-7.1,3.1-12.7,6-16.9
				c3.1-3.9,6.6-5.9,11-5.9c3.1,0,6.2,1.7,8.9,5.1l3.3-23.7c-3.3-1.2-6.6-2-10.2-2c-10.4,0-19.2,3.9-26.5,11.7
				c-7.3,7.8-11.9,18.3-13.9,31.5c-2,13.9-0.2,24.7,5.3,32.3c5.1,6.8,11.9,10.3,20.6,10.3c3.5,0,8-1,12.8-2.9l4.6-23.2
				C564.5,375.5,560.5,377.2,557,377.2z M607.8,398L607.8,398l3.1-20.8h-18.1l2-13h16.1l2.9-20.5h-16.1l1.6-11h17.9l3.1-20.5h-38.9
				L568.9,398H607.8z"/>
		</g>
	</g>
</g>
</svg>
