<?xml version="1.0" encoding="utf-8"?>
<!-- Generator: Adobe Illustrator 19.2.1, SVG Export Plug-In . SVG Version: 6.00 Build 0)  -->
<svg version="1.1" id="layer" xmlns="http://www.w3.org/2000/svg" xmlns:xlink="http://www.w3.org/1999/xlink" x="0px" y="0px"
	 viewBox="0 240 640 160" style="enable-background:new 0 0 652 652;" xml:space="preserve">
<style type="text/css">
	.st0{fill:#080909;}
	.st1{fill:#656720;}
</style>
<g>
	<g>
		<g>
			<path class="st0" d="M53.1,283.7L53.1,283.7l5.1-34.7H46.5l-6.1,41.2c-0.2,1.9,1.2,5.3,4.9,5.3h37.4l1.6-10.3H54.5
				C53.6,285.1,53.1,284.4,53.1,283.7z"/>
		</g>
		<g>
			<path class="st0" d="M263.8,283.9L263.8,283.9l4-29h-11l-5.4,36.2c-0.2,2.4,1.9,4.3,4.2,4.3h32.5l1.6-10.1h-24.8
				C264,285.4,263.5,284.4,263.8,283.9z"/>
		</g>
		<g>
			<path class="st0" d="M305.8,283.9L305.8,283.9l4.2-29h-11l-5.4,36.2c-0.2,2.4,1.6,4.3,4.2,4.3h32.5l1.4-10.1h-24.6
				C306.3,285.4,305.8,284.4,305.8,283.9z"/>
		</g>
		<g>
			<polygon class="st0" points="240.6,254.9 240.6,254.9 234.5,295.4 246,295.4 252.1,254.9 			"/>
		</g>
		<g>
			<path class="st0" d="M218.4,249L218.4,249c-1.9,0-2.6,1.4-2.6,1.4s-8.9,23-8.9,23.2l-0.2,0.2c-0.2,0-0.2-0.2-0.2-0.2
				c0-0.2-2.3-22.8-2.3-22.8c0-0.5-0.5-1.9-2.3-1.9c-1.6,0-17.3,0-17.3,0l-7,46.5h11.7l4.4-30.4l4,28c0.2,2.2,1.9,2.4,2.6,2.4
				c1.6,0,4,0,5.8,0c1.2,0,2.1-0.5,2.8-1.9l13.1-28.5l-4.4,30.4h12.2l7.2-46.5C236.9,249,219.3,249,218.4,249z"/>
		</g>
		<g>
			<path class="st0" d="M101,280.8L101,280.8c0-0.5,0.5-0.5,0.5-0.5H127c2.3,0,4.2-1.4,4.7-4.8l2.6-17c0.2-1.2-0.2-3.6-3.5-3.6H98.4
				c-1.9,0-5.1,1.4-5.6,5.5l-4.4,30.4c-0.7,3.1,1.4,4.6,3.7,4.6h36.5l1.6-10.1H101c-0.5,0-0.7-0.5-0.7-0.7L101,280.8z M102.7,269.6
				L102.7,269.6l0.7-4.1c0-0.2,0.2-0.5,0.5-0.5h18c0.5,0,0.7,0.5,0.7,0.7l-0.7,3.8c0,0.2-0.2,0.5-0.5,0.5h-18
				C102.9,270,102.7,269.8,102.7,269.6z"/>
		</g>
		<g>
			<path class="st0" d="M149,265.5L149,265.5c0-0.2,0.2-0.5,0.7-0.5h27.6l1.6-10.1h-34.1c-3.7,0-5.6,2.6-5.8,4.6l-2.6,17
				c-0.2,2.2,1.4,3.8,3.3,3.8h23.6c0.5,0,0.7,0.2,0.7,0.7l-0.7,3.6c0,0.5-0.2,0.7-0.5,0.7h-27.6l-1.6,10.1h34.8
				c2.6,0,4.4-1.4,4.9-3.6l2.6-18c0.2-1.7-0.7-3.8-3.5-3.8H149c-0.2,0-0.7-0.2-0.5-0.7L149,265.5z"/>
		</g>
		<g>
			<path class="st0" d="M350.8,265.5L350.8,265.5c0-0.2,0.2-0.5,0.5-0.5h27.6l1.7-10.1h-34.2c-3.7,0-5.4,2.6-5.6,4.6l-2.6,17
				c-0.5,2.2,1.4,3.8,3,3.8H365c0.2,0,0.5,0.2,0.5,0.7l-0.5,3.6c0,0.5-0.5,0.7-0.7,0.7h-27.6l-1.7,10.1h35.1c2.4,0,4.5-1.4,4.7-3.6
				l2.8-18c0.2-1.7-0.9-3.8-3.5-3.8h-23.4c-0.5,0-0.7-0.2-0.7-0.7L350.8,265.5z"/>
		</g>
		<g>
			<path class="st1" d="M51.7,396L51.7,396c7.5,0,13.8-2.4,18.9-6.7c5.1-4.6,8.4-10.3,9.6-17.5c0.9-5.7,0.2-10.1-2.1-13.2
				c-2.1-3.1-6.1-5-11.9-5.8c10.5-1,16.4-6.7,18-17.3c1.2-6.9-0.2-12.7-4.4-17.2c-4-4.3-10.8-6.5-20.3-6.5H33.7L20.8,396H51.7z
				 M48.2,361.5L48.2,361.5h1.6c3,0,5.1,0.7,6.5,2.2c1.4,1.4,1.9,3.6,1.4,6c-0.2,2.6-1.4,4.8-3.3,6.2c-1.9,1.7-4.2,2.4-7,2.4
				c-0.2,0-0.5,0-0.7,0c-0.5,0-0.7-0.2-1.2-0.2L48.2,361.5z M53.1,329.4L53.1,329.4c0.5,0,0.9,0,1.4,0c0.5,0,0.7,0,0.9,0
				c5.1,0,7.5,2.4,6.8,7.2c-0.5,2.4-1.4,4.1-3.3,5.3c-1.6,1.4-4,1.9-6.5,1.9H51L53.1,329.4z M142.4,323.5L142.4,323.5
				c-4.4-7.7-11.2-11.5-20.8-11.5c-7.7,0-14.7,2.9-21.3,8.4c-8.7,7.7-14.3,18.7-16.4,33.1c-2.3,14.9-0.5,26.1,5.6,33.5
				c4.9,6,11.2,9.1,19.4,9.1c9.1,0,17.1-4.1,23.8-11.7c7-7.7,11.5-17.7,13.3-30.2C148,341.2,146.8,331.1,142.4,323.5z M118.3,370.2
				L118.3,370.2c-1.9,3.8-4.2,5.5-6.8,5.5c-2.6,0-4.2-1.9-5.1-5.5c-0.9-3.8-0.7-9.3,0.2-16.3c1.2-6.9,2.8-12.2,4.9-16.1
				c2.1-3.8,4.4-5.7,7.2-5.7c5.1,0,6.5,7.4,4.2,22.3C122.1,361.1,120.4,366.3,118.3,370.2z M165.6,396L165.6,396
				c11.5,0,20.3-3.4,27.1-9.8c8-7.7,13.1-18.2,15.2-32.3c2.1-14.1,0-25.2-6.8-32.8c-5.1-6.2-13.3-9.1-24.3-9.1h-18.9L144.7,396
				H165.6z M176.5,333L176.5,333h0.7c3.5,0,5.8,1.9,7.2,6c1.4,3.8,1.6,9.1,0.7,15.8c-2.1,13.7-7.2,20.6-15.2,20.8L176.5,333z
				 M242.2,360.4L242.2,360.4l26.4-48.4h-22.9l-5.8,12.5c-0.7,1.4-1.6,3.4-2.6,5.5c-0.9,2.2-1.9,4.8-3.3,7.9
				c-0.2-1.9-0.5-4.1-0.7-6.5c-0.2-2.2-0.5-4.6-0.9-6.9l-2.1-12.5h-23.1l12.9,48.4l-5.4,35.7h22L242.2,360.4z M288.3,375.7
				L288.3,375.7c-2.1,0-4.2-0.5-5.6-1.4c-1.6-1-2.8-2.2-3.7-4.1c-0.9-1.9-1.6-4.1-1.9-6.7c-0.2-2.6,0-5.7,0.5-9.1
				c1.2-6.9,3.3-12.5,6.5-16.5c3-3.8,6.8-5.7,11.5-5.7c3.5,0,6.5,1.7,9.4,5l3.5-23.2c-3.5-1.2-7-1.9-10.5-1.9
				c-11,0-20.3,3.8-28.3,11.5c-7.7,7.7-12.6,18-14.5,30.9c-2.1,13.7-0.2,24.2,5.6,31.6c5.1,6.7,12.4,10.1,21.5,10.1
				c4,0,8.4-1,13.6-2.9l4.9-22.8C296.3,374,292.1,375.7,288.3,375.7z M362,323.5L362,323.5c-4.5-7.7-11.2-11.5-20.8-11.5
				c-7.7,0-14.7,2.9-21.3,8.4c-8.9,7.7-14.3,18.7-16.4,33.1c-2.3,14.9-0.5,26.1,5.6,33.5c4.9,6,11.2,9.1,19.4,9.1
				c9.1,0,17.1-4.1,23.8-11.7c7-7.7,11.2-17.7,13.3-30.2C367.6,341.2,366.4,331.1,362,323.5z M337.9,370.2L337.9,370.2
				c-1.9,3.8-4.2,5.5-6.8,5.5c-2.6,0-4.4-1.9-5.1-5.5c-0.9-3.8-0.7-9.3,0.2-16.3c1.2-6.9,2.8-12.2,4.9-16.1c2.1-3.8,4.4-5.7,7-5.7
				c5.4,0,6.8,7.4,4.4,22.3C341.6,361.1,340,366.3,337.9,370.2z M448.5,312L448.5,312h-26.7l-10.3,30.4c-1.4,4.1-2.8,8.9-4,14.4
				c0.2-3.4,0.5-6.2,0.5-8.9c0.2-2.9,0.2-5.3,0.2-7.7L408,312h-27.6L357.8,396h23.6l7.9-38.1l2.8-15.6c0,2.4-0.2,4.1-0.2,4.8
				c-0.2,5.3-0.2,9.1-0.2,11.3V396h18.5l13.1-37.6c0.9-2.4,1.6-5,2.3-7.7c0.7-2.6,1.4-5.5,2.3-8.4l-1.9,15.3l-4.9,38.3h22.4
				L448.5,312z M478.7,396L478.7,396c7.2,0,13.6-2.4,18.9-6.7c5.1-4.6,8.4-10.3,9.6-17.5c0.7-5.7,0-10.1-2.1-13.2
				c-2.3-3.1-6.3-5-11.9-5.8c10.3-1,16.4-6.7,18-17.3c0.9-6.9-0.5-12.7-4.4-17.2c-4-4.3-10.8-6.5-20.4-6.5h-25.7L447.6,396H478.7z
				 M475.1,361.5L475.1,361.5h1.7c2.8,0,4.9,0.7,6.5,2.2c1.4,1.4,1.9,3.6,1.4,6c-0.5,2.6-1.4,4.8-3.5,6.2c-1.9,1.7-4,2.4-6.8,2.4
				c-0.2,0-0.5,0-0.9,0c-0.2,0-0.7-0.2-0.9-0.2L475.1,361.5z M480.1,329.4L480.1,329.4c0.5,0,0.9,0,1.4,0c0.2,0,0.7,0,0.9,0
				c5.1,0,7.2,2.4,6.5,7.2c-0.2,2.4-1.4,4.1-3.1,5.3c-1.9,1.4-4,1.9-6.5,1.9h-1.6L480.1,329.4z M562.3,312L562.3,312h-27.1
				L502.5,396h22.9l3.5-10.8h14.7V396h22.9L562.3,312z M534.5,367.5L534.5,367.5l4.2-13.2l3.3-10.1c0-0.2,0.2-0.7,0.5-1.7
				c0.2-0.7,0.5-2.4,1.2-4.6c0.2-1.2,0.7-2.2,0.9-3.1c0.2-1,0.5-1.9,0.7-2.6l-0.7,7.9c0,1.7,0,3.1-0.2,4.1c0,1.2,0,1.9,0,2.6
				c-0.2,5.5-0.2,8.6-0.5,9.3c0,1,0,1.4,0,1.4v9.8H534.5z M605.1,332.1L605.1,332.1h12.6l3.1-20.1h-47l-3.1,20.1h12.2l-9.8,64h22
				L605.1,332.1z"/>
		</g>
	</g>
</g>
</svg>
